<svg id="Capa_1" enable-background="new 0 0 511.996 511.996" height="512" viewBox="0 0 511.996 511.996" width="512" xmlns="http://www.w3.org/2000/svg"><g><path d="m181.988 267.416c4.109 0 7.5-3.342 7.5-7.5 0-4.186-3.418-7.5-7.501-7.5-4.196 0-7.499 3.407-7.499 7.5 0 4.088 3.314 7.5 7.5 7.5z"/><path d="m330.009 252.416c-4.166 0-7.501 3.401-7.501 7.5 0 4.203 3.433 7.5 7.5 7.5 4.213 0 7.5-3.43 7.5-7.5 0-4.169-3.397-7.5-7.499-7.5z"/><path d="m511.996 267.036c-.007-4.138-3.363-7.487-7.5-7.487h-.013c-105.04.496-101.149-.532-109.586 1.096-13.874-34.9-37.095-42.448-54.537-42.448-31.479 0-52.755 17.401-61.692 50.362l-22.67 15.422-22.67-15.422c-8.937-32.962-30.214-50.362-61.692-50.362-30.507 0-46.377 21.985-54.542 42.447-3.071-.592-6.236-.917-9.477-.923-12.59-.022-87.775-.152-100.117-.173-4.136 0-7.493 3.35-7.5 7.487-.03 17.514 12.482 32.177 29.047 35.476 1.504 24.863 11.394 48.722 28.004 67.356 2.755 3.092 7.496 3.365 10.589.608 3.092-2.756 3.364-7.497.608-10.589-8.205-9.205-14.516-19.885-18.668-31.355 2.921 1.35 6.039 2.344 9.317 2.872 7.365 20.14 28.825 30.145 48.76 29.138 27.696-.07 50.236-22.6 50.284-50.323.033-19.264-10.803-36.05-26.709-44.561 8.76-21.825 22.015-32.461 40.405-32.461 23.006 0 38.021 11.235 45.715 34.284-20.564 8.479-21.427 44.599 6.176 51.967.006 19.957-4.59 38.613-19.376 52.455-25.701 24.06-78.559 27.205-112.828 7.216-3.578-2.087-8.17-.878-10.257 2.7s-.878 8.17 2.7 10.257c39.119 22.817 99.145 20.168 130.555-9.146 19.307-18.02 24.302-40.978 24.199-66.398l17.477-13.897 17.477 13.897c-.102 25.396 4.877 48.363 24.199 66.398 29.675 27.696 89.019 33.373 130.555 9.146 3.578-2.087 4.787-6.679 2.7-10.257-2.086-3.578-6.682-4.785-10.257-2.7-33.635 19.618-86.549 17.311-112.763-7.156-14.794-13.807-19.447-32.444-19.441-52.515 27.542-7.352 26.805-43.461 6.176-51.967 7.695-23.049 22.71-34.284 45.715-34.284 18.39 0 31.644 10.637 40.405 32.461-15.906 8.511-26.742 25.297-26.709 44.561.045 26.038 20.244 50.379 52.564 50.379 14.083 0 38.03-6.088 46.479-29.193 3.277-.528 6.396-1.522 9.317-2.872-4.153 11.471-10.464 22.15-18.668 31.355-2.756 3.092-2.483 7.833.608 10.589 3.091 2.755 7.833 2.484 10.589-.608 16.61-18.635 26.5-42.493 28.004-67.356 16.566-3.298 29.078-17.962 29.048-35.476zm-369.056 43.158c-.034 19.505-15.911 35.35-35.409 35.35h-.062c-.137.004-.28.004-.405.01-1.015.05-21.574.841-31.223-13.688h29.256c4.143 0 7.5-3.358 7.5-7.5s-3.357-7.5-7.5-7.5h-40.475c-8.997-.018-16.667-5.704-19.684-13.656h31.803c4.143 0 7.5-3.358 7.5-7.5s-3.357-7.5-7.5-7.5h-40.673c-8.997-.018-16.687-5.693-19.705-13.645l91.229.158c19.525.033 35.383 15.946 35.348 35.471zm85.699-4.968c-6.192-1.105-11.362-6.41-11.362-12.173 0-2.663.576-10.851 7.461-12.195l18.618 12.666zm54.718 0-14.717-11.702 18.618-12.666c6.885 1.344 7.461 9.532 7.461 12.195.001 5.764-5.169 11.069-11.362 12.173zm192.571-17.016h-40.673c-4.143 0-7.5 3.358-7.5 7.5s3.357 7.5 7.5 7.5h31.803c-3.017 7.953-10.687 13.638-19.684 13.656h-40.474c-4.143 0-7.5 3.358-7.5 7.5s3.357 7.5 7.5 7.5h29.256c-6.814 10.262-19.262 13.677-31.692 13.677-19.496-.001-35.375-15.845-35.409-35.35-.034-19.525 15.823-35.438 35.349-35.471l91.229-.158c-3.018 7.952-10.708 13.628-19.705 13.646z"/><path d="m251.269 225.571c2.956 2.407 7.295 2.215 10.028-.514 11.318-11.298 42.757-42.682 52.897-52.805 9.811-9.96 13.619-23.986 10.187-37.518-1.018-4.015-5.102-6.444-9.113-5.426-4.015 1.019-6.444 5.099-5.426 9.114 4.385 17.296-9.829 25.989-11.585 28.545-3.886-10.941-13.624-17.595-24.794-17.595-6.604 0-12.758 2.423-17.465 6.597-13.351-11.839-35.68-7.525-42.259 10.999l-5.25-5.241c-8.484-8.614-8.207-19.565-5.118-26.942 8.667-20.702 37.54-19.789 45.674.329 2.521 6.235 11.384 6.24 13.906 0 4.901-12.121 17.929-17.939 29.965-14.522 3.985 1.132 8.132-1.183 9.263-5.167 1.131-3.985-1.182-8.132-5.167-9.263-14.451-4.104-30.591.067-41.014 11.997-18.666-21.365-54.739-17.172-66.464 10.833-6.318 15.091-3.15 31.667 8.312 43.306 56.653 56.553 52.961 52.897 53.423 53.273zm-20.809-41.912c-6.995-7.101-2.046-19.286 8.073-19.286 4.644 0 8.77 2.784 10.512 7.092 2.52 6.235 11.384 6.241 13.906 0 3.703-9.158 16.926-9.7 20.922-.157 1.835 4.385.962 9.002-2.337 12.351l-25.539 25.493z"/></g></svg>